<svg width="128" height="145" viewBox="0 0 128 145" fill="none" xmlns="http://www.w3.org/2000/svg">
<path fill-rule="evenodd" clip-rule="evenodd" d="M65.8209 1.00635C65.0527 -0.33545 63.1176 -0.33545 62.3495 1.00635L4.26726 102.464C3.50396 103.797 4.46661 105.458 6.00296 105.458H19.1888C23.8513 98.89 41.6829 94 62.9688 94C84.2547 94 102.086 98.89 106.749 105.458H122.167C123.704 105.458 124.666 103.797 123.903 102.464L65.8209 1.00635Z" fill="url(#paint0_linear_926_2)"/>
<path d="M52 105.262C52 109.049 54.6724 111.25 59.7957 115.131C60.9533 116.017 62.2035 116.955 63.4934 118C64.9652 116.793 66.3642 115.73 67.6475 114.753C72.7609 110.899 75 109.013 75 105.262C75 102.54 73.7884 99.9301 71.6317 98.0056C69.4751 96.0812 66.55 95 63.5 95C60.45 95 57.5249 96.0812 55.3683 98.0056C53.2116 99.9301 52 102.54 52 105.262Z" fill="url(#paint1_linear_926_2)"/>
<path d="M53.12 134.594C55.87 136.717 58.7117 138.91 61.5854 141.521L63.2217 143L64.8258 141.519C69.9913 136.806 72.4342 129.569 73.4929 125.227C74.3054 126.371 74.9083 127.627 75.2781 128.946L76.2567 132.356L79.0823 129.946C84.03 125.721 87.3323 121.531 87.3323 114.823C87.3799 109.982 85.6466 105.266 82.408 101.423C79.1693 97.5808 74.611 94.8323 69.4573 93.6146C68.1623 93.3163 66.8436 93.1108 65.5133 93C68.3979 93.4887 71.004 94.8785 72.8808 96.9289C74.7576 98.9794 75.7872 101.562 75.7915 104.229C75.7915 108.917 72.6817 111.313 69.0815 114.108C67.7958 115.102 66.3315 116.229 64.8533 117.581L63.2217 119.056L61.5992 117.581C60.2792 116.381 58.9592 115.365 57.6827 114.377C54.071 111.592 50.661 108.96 50.661 104.229C50.6647 101.572 51.686 98.9993 53.5495 96.9525C55.4129 94.9056 58.0023 93.5125 60.8727 93.0125C54.9131 93.5382 49.3826 96.063 45.3596 100.095C41.3367 104.126 39.1098 109.375 39.1133 114.819C39.1133 123.781 45.6056 128.792 53.12 134.594Z" fill="url(#paint2_linear_926_2)"/>
<defs>
<linearGradient id="paint0_linear_926_2" x1="127.67" y1="-7.80926" x2="5.96339" y2="-10.0236" gradientUnits="userSpaceOnUse">
<stop stop-color="#53BDFF"/>
<stop offset="0.22962" stop-color="#B939FE"/>
<stop offset="1" stop-color="#9477FD"/>
</linearGradient>
<linearGradient id="paint1_linear_926_2" x1="63.5" y1="95" x2="63.5" y2="118" gradientUnits="userSpaceOnUse">
<stop stop-color="white" stop-opacity="0.1"/>
<stop offset="0.0001" stop-color="#FFDA14" stop-opacity="0.928"/>
<stop offset="1" stop-color="#FF8C00"/>
</linearGradient>
<linearGradient id="paint2_linear_926_2" x1="63.2233" y1="93" x2="63.2233" y2="143" gradientUnits="userSpaceOnUse">
<stop offset="0.01" stop-color="#FF4500" stop-opacity="0.6"/>
<stop offset="0.555" stop-color="#FF8C00"/>
<stop offset="0.9999" stop-color="#FFD700" stop-opacity="0.8"/>
</linearGradient>
</defs>
</svg>
